<?xml version="1.0" standalone="no"?>
<!DOCTYPE svg PUBLIC "-//W3C//DTD SVG 20010904//EN"
 "http://www.w3.org/TR/2001/REC-SVG-20010904/DTD/svg10.dtd">
<svg version="1.0" xmlns="http://www.w3.org/2000/svg"
 width="512.000000pt" height="512.000000pt" viewBox="0 0 512.000000 512.000000"
 preserveAspectRatio="xMidYMid meet">
<metadata>
Created by potrace 1.11, written by Peter Selinger 2001-2013
</metadata>
<g transform="translate(0.000000,512.000000) scale(0.100000,-0.100000)"
fill="#000000" stroke="none">
<path d="M3760 4480 l0 -240 -120 0 -120 0 0 -120 0 -119 36 -10 c19 -5 89
-22 155 -38 65 -15 118 -31 116 -35 -1 -4 -85 -58 -187 -120 l-185 -112 -89
-6 -88 -5 -39 -114 c-21 -63 -42 -117 -46 -121 -4 -4 -95 -41 -200 -83 l-193
-77 -356 79 c-196 44 -360 83 -364 88 -4 4 -22 55 -40 113 -18 58 -37 109 -41
114 -5 5 -62 22 -126 38 -65 16 -135 33 -155 39 l-38 10 0 119 0 120 -80 80
-80 80 -320 -160 -320 -160 0 -160 c0 -121 -3 -160 -12 -161 -7 0 -22 -2 -33
-4 -11 -2 -47 -7 -80 -10 -33 -3 -67 -8 -75 -10 -8 -2 -44 -7 -80 -10 -36 -4
-72 -8 -80 -10 -8 -2 -44 -6 -80 -10 -36 -4 -72 -8 -80 -10 -8 -1 -39 -6 -67
-10 l-53 -7 0 -199 0 -199 160 -160 160 -160 -81 -121 c-44 -66 -79 -122 -77
-122 4 -3 88 -68 108 -84 45 -37 176 -142 250 -200 47 -37 90 -72 96 -78 6 -5
26 -21 44 -35 18 -14 92 -73 165 -131 142 -115 127 -108 318 -145 12 -2 33 -6
47 -9 140 -30 177 -34 234 -26 34 5 84 12 111 16 28 3 66 9 85 12 19 3 44 6
55 8 134 18 195 26 218 31 l27 6 0 -119 c0 -105 -4 -130 -31 -213 -16 -52 -34
-107 -39 -123 -8 -27 -3 -32 191 -187 l199 -160 182 146 c101 81 192 153 203
159 18 12 28 6 100 -52 44 -35 95 -77 114 -91 19 -15 39 -31 45 -37 6 -5 27
-22 48 -37 20 -15 42 -33 50 -40 59 -55 48 -56 140 9 46 32 94 66 108 75 14 9
156 108 315 220 l290 203 163 323 163 323 -28 33 c-15 18 -38 45 -50 62 -12
16 -72 91 -133 167 l-110 137 81 161 c59 119 75 159 62 155 -10 -3 -74 -19
-143 -36 -69 -17 -133 -33 -142 -36 -13 -4 -36 24 -97 115 l-80 121 159 120
160 120 80 -40 80 -40 218 186 c119 102 241 207 271 233 30 25 58 49 63 52 5
3 -9 43 -31 87 l-41 82 80 40 80 40 0 200 0 200 -120 -80 -119 -80 -81 80 -81
80 -79 0 -80 0 -80 160 -80 160 -200 0 -200 0 0 -240z"/>
<path d="M4458 1583 c-139 -59 -129 -311 17 -457 19 -20 48 -42 63 -49 53 -26
143 -7 183 39 25 28 40 87 34 125 -10 55 -85 270 -103 295 -43 57 -123 77
-194 47z"/>
<path d="M3328 823 c-41 -6 -204 -171 -217 -220 -15 -52 -14 -61 10 -109 26
-55 86 -87 149 -79 56 7 84 31 135 113 84 135 95 171 68 227 -15 32 -78 76
-104 74 -8 -1 -26 -4 -41 -6z"/>
</g>
</svg>
